<svg width="375" height="922" viewBox="0 0 375 922" fill="none" xmlns="http://www.w3.org/2000/svg">
<g clip-path="url(#clip0_2047_2)">
<rect width="9104.41" height="13321.8" transform="translate(-5242 -3947)" fill="transparent"/>
<path opacity="0.2" d="M37.4702 494.07C35.6002 492.92 33.7201 491.78 31.8501 490.63C31.8501 410.54 31.8501 330.45 31.8501 250.36C33.9901 248.99 36.1198 247.62 38.2598 246.25C66.2498 306.49 112.14 346.31 174.61 370.25C111.23 393.69 66.8302 435.29 37.4702 494.07ZM136.39 370.05C107.83 346.14 75.9099 319.43 44.1899 292.88C44.1899 343.07 44.1899 396.51 44.1899 447.91C75.1999 421.73 106.69 395.13 136.39 370.05Z" fill="#B3A998"/>
<path opacity="0.2" d="M75.1203 636.05C76.1103 530.84 160.9 447.69 266.95 447.94C372.03 448.19 456.78 533.45 456.43 638.56C456.08 742.92 369.54 829.19 265.71 828.66C159.53 828.12 74.1303 741.81 75.1203 636.04V636.05ZM265.84 456.21C165.79 455.99 83.3004 538.46 83.6604 638.34C84.0204 736.69 165.6 818.96 264.17 820.36C363.25 821.77 446.21 739.24 446.73 638.74C447.26 537.65 366.77 456.43 265.83 456.22L265.84 456.21Z" fill="#B3A998"/>
<path opacity="0.2" d="M373.38 731.1C343.49 747.04 315.57 761.93 287.65 776.83C287.63 777.53 287.61 778.24 287.59 778.94C307.66 772.22 327.72 765.5 347.79 758.78C334.67 766.15 321.81 774.03 308.37 780.77C293.43 788.26 277.98 794.72 264.57 800.8C254.14 795.43 241.89 786.4 228.19 782.53C165.99 764.96 119.53 708.25 117.6 645.31C115.47 575.91 154.8 519.07 219.05 496.7C236.32 490.69 252.46 481.42 265.95 475.13C276.78 480.97 288.78 487.22 300.58 493.85C316.21 502.62 331.67 511.67 347.21 520.6C327.62 512.29 308.04 503.98 288.45 495.67C288.49 496.28 288.53 496.88 288.57 497.49C318.73 515.46 348.89 533.43 379.06 551.4C388.7 565.5 401.89 578.36 407.35 593.93C427.03 650.05 408.54 709.22 362.75 745.78C365.99 741.32 369.23 736.86 373.4 731.12L373.38 731.1ZM223.4 742.54C226.83 739.23 230.26 735.93 233.69 732.62C213.06 710.39 192.43 688.16 171.8 665.93C169.68 667.28 167.57 668.63 165.45 669.98C165.71 675.36 165.97 680.74 166.23 686.12C160.49 676.53 154.75 666.94 148.1 655.83C146.17 703.48 195.79 755.51 244.07 753.36C208.39 737.49 175.55 723.6 165.38 685.22C184.78 704.4 204.09 723.47 223.4 742.54ZM218.61 533.84C225.47 529.79 233.09 527.04 244.27 521.9C196.1 519.97 146.55 571.98 148.03 619.94C154.8 608.78 160.59 599.23 166.38 589.68C165.95 594.5 165.41 599.42 164.88 604.34C166.89 606.1 168.89 607.86 170.9 609.62C192.12 587.57 213.35 565.51 234.57 543.46C232.84 541.7 231.11 539.94 229.38 538.18C199.7 544.87 183.92 569.02 165.82 590.26C171.83 560.63 195.56 547.45 218.61 533.84ZM293.61 752.56C332.26 758.04 380.27 709.15 384.09 664.81C367.57 683.94 347.93 706.69 328.3 729.43C342.58 710.6 356.82 691.81 371.06 673.02C367.91 670.29 364.75 667.57 361.6 664.84C340.11 687.2 318.62 709.56 297.14 731.92C298.79 733.96 300.45 736.01 302.1 738.06C311.13 734.88 320.15 731.7 329.18 728.52C317.13 736.67 305.08 744.82 293.62 752.57L293.61 752.56ZM265.25 499.53C241.93 563.13 203.31 606.45 144.45 637.23C200.82 669.45 242.79 710.81 265.22 778.54C289.06 713.45 327.61 669.1 388.68 637.85C328.02 607.3 289.95 562.46 265.24 499.53H265.25ZM364.91 615.32C363.21 576.92 336.01 548.08 296.86 543.12C318.16 565.72 339.46 588.32 364.91 615.32ZM289.59 521.95C335.78 539.53 368.77 569.44 381.82 618.68C380.78 567.79 337.91 523.29 289.59 521.95Z" fill="#B3A998"/>
<path opacity="0.2" d="M199.3 637.51C222.13 612.88 243.71 589.6 265.63 565.96C288.43 590.51 310.45 614.23 332.41 637.88C310.18 661.85 288.55 685.17 265.56 709.96C242.47 684.72 220.59 660.8 199.3 637.52V637.51ZM216.86 637.6C232.49 654.53 248.32 671.67 265.45 690.22C281.43 673.26 297.36 656.37 314.44 638.24C298.56 620.94 282.85 603.84 265.82 585.3C248.9 603.37 233.38 619.94 216.85 637.59L216.86 637.6Z" fill="#B3A998"/>
<path opacity="0.2" d="M300.2 636.08C286.53 623.69 276.62 614.71 266.69 605.75C226.77 631.81 226.54 639.71 267.14 671.63C277.42 660.57 287.87 649.32 300.19 636.07L300.2 636.08Z" fill="#B3A998"/>
<mask id="mask0_2047_2" style="mask-type:luminance" maskUnits="userSpaceOnUse" x="-231" y="-123" width="611" height="3924">
<path d="M379.81 -123H-230.99V3800.45H379.81V-123Z" fill="transparent"/>
</mask>
<g mask="url(#mask0_2047_2)">
<path opacity="0.2" d="M485.09 584.18C469.29 443.45 392.05 368.08 253.26 351.62C393.31 335.19 469.42 258.69 485.69 119C501.68 258.89 577.55 334.71 716.62 351.78C577.35 367.52 502.03 445.58 485.09 584.18ZM653.41 351.85C580.16 327.55 530.61 285.37 495.76 223.84C495.76 309.18 495.76 394.52 495.76 479.85C530.83 418.8 579.56 375.76 653.41 351.84V351.85ZM465.57 469.65C466.11 443.44 454.27 416.68 428.15 384.1C421.82 376.2 414.94 368.6 407.48 361.78C383.94 340.266 354.837 337.293 320.17 352.86C386.32 374.09 432.97 412.23 465.57 469.66V469.65ZM411.72 302.71C401.63 309.75 392.78 315.94 379.81 324.99C426.07 354.56 457.82 393.71 478.41 442.07C477.12 385.88 453.08 341.13 411.72 302.71ZM479.2 210.54C449.49 244.16 447.54 276.01 479.2 309.42C479.2 275.35 479.2 243.81 479.2 210.54ZM446.63 274.49C443.88 273.59 441.13 272.68 438.37 271.78C433.17 278.69 427.97 285.59 422.98 292.23C439.94 314.24 456.3 335.48 472.66 356.72C474.33 356.06 476 355.39 477.68 354.73C467.33 327.98 456.98 301.23 446.63 274.49Z" fill="#B3A998"/>
<path opacity="0.2" d="M266.43 418.36C387.58 418.9 485.93 518 484.93 638.52C483.92 760.39 386.35 857.44 264.95 857.33C144.26 857.22 45.9296 758.06 46.5296 637.08C47.1296 515.57 145.41 417.82 266.43 418.36ZM472.49 639.43C473.58 525.35 380.29 430.88 266.04 430.38C154.03 429.89 59.48 523.6 58.41 636.16C57.33 750.01 150.95 844.41 265.31 844.78C378.66 845.15 471.4 753.23 472.49 639.42V639.43Z" fill="#B3A998"/>
</g>
</g>
<defs>
<clipPath id="clip0_2047_2">
<rect width="9104.41" height="13321.8" fill="white" transform="translate(-5242 -3947)"/>
</clipPath>
</defs>
</svg>
