<?xml version="1.0" encoding="UTF-8" standalone="no"?>
<svg
   width="375"
   height="922"
   viewBox="0 0 375 922"
   fill="none"
   version="1.1"
   id="svg40"
   sodipodi:docname="decor-right-03.svg"
   inkscape:version="1.1.1 (3bf5ae0d25, 2021-09-20)"
   xmlns:inkscape="http://www.inkscape.org/namespaces/inkscape"
   xmlns:sodipodi="http://sodipodi.sourceforge.net/DTD/sodipodi-0.dtd"
   xmlns="http://www.w3.org/2000/svg"
   xmlns:svg="http://www.w3.org/2000/svg">
  <sodipodi:namedview
     id="namedview42"
     pagecolor="#ffffff"
     bordercolor="#666666"
     borderopacity="1.0"
     inkscape:pageshadow="2"
     inkscape:pageopacity="0.0"
     inkscape:pagecheckerboard="0"
     showgrid="false"
     inkscape:zoom="0.45444685"
     inkscape:cx="328.97136"
     inkscape:cy="465.40095"
     inkscape:window-width="1920"
     inkscape:window-height="1001"
     inkscape:window-x="-9"
     inkscape:window-y="-9"
     inkscape:window-maximized="1"
     inkscape:current-layer="g33" />
  <g
     clip-path="url(#clip0_2047_2)"
     id="g33">
    <rect
       width="9104.41"
       height="13321.8"
       transform="translate(-5254 -5818)"
       fill="transparent"
       id="rect2" />
    <path
       opacity="0.2"
       d="m 87.182487,558.48 c 0,-77.75 -5.4402,-153.72 1.2798,-228.6 9.96,-111.01 117.800103,-198.02 230.100103,-187.5 -3.34,83.79 1.64,169.46 -12.19,251.99 -17.04,101.68 -121.79,173.56 -219.189903,164.11 z m 18.089903,-45.16 c 62.95,-118.72 125.09,-235.92 188.42,-355.36 -85.29,-2.43 -173.6,68.73 -186.6403,158.32 -9.220003,63.36 -1.79,129.14 -1.79,197.05 z m 131.93,-36.31 c 4.03,0.14 8.06,0.29 12.08,0.43 V 280.76 c -18.3,64.94 -9.46,130.78 -12.08,196.26 z m -26.49,24.74 c 5.27,0.3 10.53,0.6 15.8,0.89 3.37,-57.5 0.92,-115.32 -3.65,-173.27 -19.15,56.6 -8.77,114.88 -12.15,172.37 z m -26.02,21.77 c 18.99,-18.47 23.16,-103.25 9.73,-145.79 -16.74,45.52 -6.76,92.89 -9.73,145.79 z m 86.12,-78.95 c 14.88,-69.94 5.63,-140.88 8.94,-216.62 -17.91,23.5 -23.81,164.53 -8.94,216.62 z m 21.64,-60.7 c 1.37,0.04 2.75,0.07 4.12,0.11 V 192.49 c -1.37,-0.04 -2.75,-0.08 -4.12,-0.11 z m -116.43,45.66 c -3.8,-0.29 -7.6,-0.58 -11.4,-0.87 v 100.95 c 3.34,0.27 6.68,0.54 10.02,0.82 4.44,-33.36 2.65,-67.14 1.38,-100.89 z"
       fill="#b3a998"
       id="path24" />
    <mask
       id="mask0_2047_2"
       style="mask-type:luminance"
       maskUnits="userSpaceOnUse"
       x="-243"
       y="-1994"
       width="611"
       height="3924">
      <path
         d="M367.81 -1994H-242.99V1929.45H367.81V-1994Z"
         fill="transparent"
         id="path26" />
    </mask>
    <g
       mask="url(#mask0_2047_2)"
       id="g31">
      <path
         opacity="0.2"
         d="M192.91 627.07C183.5 622.48 174.09 617.9 156.19 609.18C253.46 587.02 309.89 530.88 337.63 441.52C366.79 528.74 420.42 587.69 512.21 606.69C473.13 630.28 432.5 646.56 403.39 674.73C374.66 702.53 357.59 742.38 334.18 778.86C311.4 706.34 270.21 648.54 191.97 626.14L192.91 627.08V627.07ZM347.63 713.97C367.88 691.3 383.1 670.5 402.1 654.05C421.1 637.59 443.87 625.48 459.89 614.85C423.05 582.68 384.41 548.94 347.64 516.83V713.97H347.63ZM328.06 706.88C324.68 648.38 259.75 593.44 217.95 609.98C253.53 641.3 291.79 674.96 328.06 706.88ZM324.77 642.76C327.17 641 329.57 639.25 331.97 637.49C314.08 616.96 297.14 595.4 277.34 576.91C274.09 573.87 258.26 584.29 247.92 588.63C276.06 608.45 300.41 625.61 324.77 642.76ZM329.17 591.63C321.06 575.9 312.94 560.18 304.83 544.45C300.92 546.52 297.02 548.58 293.11 550.65C283.73 575.73 314.48 579.36 329.17 591.62V591.63Z"
         fill="#B3A998"
         id="path29" />
    </g>
  </g>
  <defs
     id="defs38">
    <clipPath
       id="clip0_2047_2">
      <rect
         width="9104.41"
         height="13321.8"
         fill="white"
         transform="translate(-5254 -5818)"
         id="rect35" />
    </clipPath>
  </defs>
</svg>
