<?xml version="1.0" encoding="UTF-8" standalone="no"?>
<svg
   width="523"
   height="922"
   viewBox="0 0 523 922"
   fill="none"
   version="1.1"
   id="svg34"
   sodipodi:docname="decor-right-04.svg"
   inkscape:version="1.1.1 (3bf5ae0d25, 2021-09-20)"
   xmlns:inkscape="http://www.inkscape.org/namespaces/inkscape"
   xmlns:sodipodi="http://sodipodi.sourceforge.net/DTD/sodipodi-0.dtd"
   xmlns="http://www.w3.org/2000/svg"
   xmlns:svg="http://www.w3.org/2000/svg">
  <sodipodi:namedview
     id="namedview36"
     pagecolor="#ffffff"
     bordercolor="#666666"
     borderopacity="1.0"
     inkscape:pageshadow="2"
     inkscape:pageopacity="0.0"
     inkscape:pagecheckerboard="0"
     showgrid="false"
     inkscape:zoom="0.90889371"
     inkscape:cx="261.30668"
     inkscape:cy="461.55012"
     inkscape:window-width="1920"
     inkscape:window-height="1001"
     inkscape:window-x="-9"
     inkscape:window-y="-9"
     inkscape:window-maximized="1"
     inkscape:current-layer="g27" />
  <g
     clip-path="url(#clip0_2047_2)"
     id="g27">
    <rect
       width="9104.41"
       height="13321.8"
       transform="translate(-5099 -6754)"
       fill="transparent"
       id="rect2" />
    <path
       d="M524.26 0.160156H-1076.6V921.16H524.26V0.160156Z"
       fill="#4E4737"
       id="path4"
       style="fill:none" />
    <path
       opacity="0.2"
       d="M276.15 653.7C270.13 529.54 357.85 439.27 463.84 425.93C486.85 423.03 495.36 427.95 495.06 453.08C494.43 504.96 494.92 556.19 466.64 602.85C430.17 663.02 377.94 698.09 308.13 708.17C284.67 711.56 271.68 707.58 275.91 680.35C277.26 671.67 276.12 662.6 276.15 653.7ZM370.38 587.62C368.84 553.37 367.31 519.11 365.77 484.86C362.82 484.86 359.86 484.87 356.91 484.87V594.36C361.02 592.21 366.16 589.52 371.3 586.83C368.54 593.76 365.77 600.7 360.29 614.43C394.38 600.37 431.28 627.1 462 587.54C426.77 587.54 398.62 587.54 370.38 587.62ZM335.32 633.63C356.46 592.2 344.42 549.35 341.14 506.88C327.16 548.5 325.66 590.64 335.56 633.25C363.28 651.5 421 644.09 437.23 617.03C401.61 623.11 365.21 604.57 335.32 633.64V633.63ZM406.02 650.35C343.69 640.57 327.66 644.34 317.82 671.61C348.19 670.68 379.68 681.67 406.02 650.35ZM318.25 539.4C299.85 577.16 306.84 615.94 312.57 654.72C328.67 617.12 319.29 577.93 318.25 539.4ZM387.72 576.36C414.95 572.09 447.3 593.1 468.8 560.61C441.12 562.66 408.61 540.84 387.72 576.36ZM386.5 468.38C365.41 499.1 378.61 533.8 377.34 566.82C401.62 536.47 386.34 501.53 386.5 468.38ZM475.15 533.07C452.02 533.69 424.72 516.77 410.48 548.46C432.16 542.43 460.58 564.95 475.15 533.07ZM397.25 533.56C401.41 534.05 405.58 534.54 409.74 535.04C410.88 509.33 412.02 483.62 413.15 457.91C409.77 457.64 406.39 457.37 403.01 457.1C390.93 481.54 399.45 508.11 397.24 533.57L397.25 533.56ZM288.42 678.94C291.13 679.12 293.83 679.29 296.54 679.47V593.22C295.2 593.08 293.87 592.94 292.53 592.8C291.16 621.51 289.79 650.22 288.42 678.94ZM427.31 519.12C438.15 519.84 445.06 521.33 451.69 520.5C461.35 519.3 470.85 516.59 480.21 513.8C480.59 513.69 479.12 502.84 477.95 502.73C466.07 501.56 453.83 500.09 442.23 501.98C437.36 502.77 433.75 511.36 427.31 519.12ZM419.26 506.55C423.08 506.98 426.91 507.42 430.73 507.85C432.39 488.39 434.04 468.92 435.7 449.46C432.48 449.08 429.25 448.7 426.03 448.33C411.05 465.83 420.47 486.99 419.26 506.55Z"
       fill="#B3A998"
       id="path6" />
    <path
       opacity="0.2"
       d="M9.47976 313.69C3.89976 193.25 97.16 118.81 178.45 111.68C201.97 109.62 206.62 117.38 207.49 139C210.51 214.08 195.03 282.27 130.34 327.36C103.68 345.94 69.63 354.44 38.24 365.56C16.61 373.22 6.73986 363.27 9.32986 340.35C10.3199 331.57 9.48976 322.59 9.47976 313.7V313.69ZM149.95 286.13C123.25 291.82 90.9398 271.2 70.0198 302.02C97.0398 297.56 129.16 319.98 149.95 286.13ZM168.2 259.98C141.2 263.11 109.11 242 89.43 275.21C116.03 270.52 147.83 291.86 168.2 259.98ZM86.5696 167.47C69.5896 198.08 77.5697 230.43 77.2097 262.37C80.3297 262.53 83.4496 262.7 86.5696 262.86V167.48V167.47ZM108.87 243.44C143.05 257.12 174.55 251.73 181.63 229.02C157.11 235.15 130.15 218.51 108.87 243.44ZM119.94 313.77C95.4597 316.94 65.9796 297.8 42.8196 333.02C73.0396 328.66 100.64 342.12 119.94 313.77ZM113.78 153.59C110.36 153.2 106.94 152.8 103.52 152.41C93.1298 179.48 100.61 207.68 98.9597 235.31C102.67 235.56 106.37 235.81 110.08 236.06C111.31 208.57 112.55 181.08 113.78 153.59ZM127.14 218.43C170.09 227.77 182.22 225.25 187.82 205.77C167.46 206.26 146.18 195.69 127.14 218.43ZM62.1599 288.26C63.9899 288.22 65.8199 288.18 67.6599 288.14V188.21C65.8299 188.14 63.9999 188.06 62.1599 187.99V288.26ZM41.9397 316.42C43.5397 316.48 45.14 316.53 46.74 316.59V216.43C45.14 216.31 43.5397 216.19 41.9397 216.07V316.42ZM122.12 207.87C124.04 208.01 125.97 208.16 127.89 208.3V141.19C125.97 141 124.04 140.8 122.12 140.61V207.88V207.87ZM145.09 197.59C155.48 198.12 160.88 199.28 165.96 198.46C174.88 197.02 183.67 194.55 192.26 191.73C192.7 191.59 190.86 180.63 189.87 180.6C178.85 180.21 167.62 180.03 156.85 181.99C153.28 182.64 150.85 189.62 145.1 197.59H145.09Z"
       fill="#B3A998"
       id="path8" />
    <path
       opacity="0.2"
       d="M234.47 252.55C253.72 320.52 293.86 366.09 363.11 395.27C293.28 425.52 253.68 472.55 234.89 539.98C215.37 472.95 176.76 425.19 105.31 395.48C175.56 366.56 216.34 320.61 234.47 252.55ZM234.77 490.78C261.62 460.61 292.25 426.21 319.06 396.08C290.86 364.04 260.42 329.45 234.93 300.47C207.82 330.94 177.18 365.36 150.21 395.67C177.83 426.73 207.96 460.62 234.77 490.78Z"
       fill="#B3A998"
       id="path10" />
    <path
       opacity="0.2"
       d="M366.39 209.36C380.14 225.21 393.9 241.06 410.4 260.07C397.23 261.95 386 263.56 371.62 265.62C385.79 281.24 397.83 294.51 410.4 308.37C369.23 326.86 356.73 318.95 357.46 278.15C357.85 256.66 357.53 235.15 357.53 213.65C360.48 212.22 363.44 210.79 366.39 209.36Z"
       fill="#B3A998"
       id="path12" />
    <path
       opacity="0.2"
       d="M367.26 98.7998C380.16 115.55 393.06 132.3 408.9 152.88C392.56 151.87 372.19 156.44 363.01 148.33C354.55 140.86 358.1 119.77 356.36 104.69C359.99 102.73 363.63 100.77 367.26 98.7998Z"
       fill="#B3A998"
       id="path14" />
    <path
       opacity="0.2"
       d="M234.73 334.59C254.46 355.9 272.34 375.21 291.18 395.56C272.68 415.75 254.43 435.67 234.86 457.02C215.83 436.48 197.51 416.71 178.14 395.82C196.48 375.98 214.86 356.09 234.73 334.59ZM217.59 379.84C210.86 384.52 204.12 389.2 196.44 394.53C210.31 409.89 221.95 422.78 234.75 436.96C247.73 422.63 259.89 409.21 272.41 395.4C259.41 381.36 247.57 368.58 234.59 354.57C229.7 360.52 225.95 365.09 222.2 369.66C220.67 373.05 219.13 376.45 217.6 379.84H217.59Z"
       fill="#B3A998"
       id="path16" />
    <path
       opacity="0.2"
       d="M217.58 379.84C219.11 376.45 220.65 373.05 222.18 369.66C236.25 376.36 250.31 383.06 266.45 390.75C252.84 407.02 244.67 416.78 235.48 427.77C221.5 410.92 197.39 403.31 217.57 379.85L217.58 379.84Z"
       fill="#B3A998"
       id="path18" />
    <mask
       id="mask0_2047_2"
       style="mask-type:luminance"
       maskUnits="userSpaceOnUse"
       x="-88"
       y="-2930"
       width="611"
       height="3924">
      <path
         d="M522.81 -2930H-87.9902V993.45H522.81V-2930Z"
         fill="white"
         id="path20" />
    </mask>
    <g
       mask="url(#mask0_2047_2)"
       id="g25">
      <path
         opacity="0.2"
         d="M766.6 763.26C705.03 772.21 649.32 789.05 606.2 833.86C564.1 877.61 542.28 930.3 538.4 993.45C520.15 855.36 445.22 778.74 305.57 763.09C444.85 747.53 519.78 670.99 536.83 532.76C552.74 671.29 628.55 746.93 766.6 763.25V763.26ZM376.01 760.81C415.94 785.71 421.23 785.61 453.09 757.91C462.4 749.82 472.67 741.8 479.05 731.58C494.43 706.97 507.77 681.08 521.94 655.7C519.43 654.11 516.92 652.53 514.41 650.94C482.94 705.62 437.12 742.3 376.02 760.8L376.01 760.81ZM557.63 655.86C566.79 698.64 589.47 732.16 622.08 759.36C653.95 785.95 657.41 785.99 697.33 760.65C637 743.2 592.49 706.26 557.63 655.86ZM462.56 810.33C502.2 774.64 523.71 731.98 530.98 682.93C500.99 719.63 471.23 756.05 440.07 794.18C444.72 797.51 453.06 803.51 462.57 810.33H462.56ZM543.62 686.7C550.16 735.77 573.25 775.54 610.27 810.62C619.98 803.59 628.23 797.62 633.72 793.65C603.23 757.46 574.08 722.86 543.62 686.7ZM577.51 844.28C587.7 833.61 593.45 827.58 599.15 821.61C582.09 799.63 566.21 779.18 550.34 758.74C548.5 759.59 546.66 760.43 544.81 761.28C554.84 786.74 564.87 812.2 577.51 844.28ZM494.5 846.39C508.07 811.85 518.82 784.48 529.57 757.11C527.78 756.39 525.99 755.68 524.2 754.96C507.88 777.08 491.55 799.2 476.36 819.78C481.25 826.95 485.55 833.26 494.5 846.39ZM529.49 804.79C508.35 841.097 508.35 871.583 529.49 896.25V804.79ZM545.98 812.67V894.98C576.59 844.43 576.78 861.53 545.98 812.67Z"
         fill="#B3A998"
         id="path23" />
    </g>
  </g>
  <defs
     id="defs32">
    <clipPath
       id="clip0_2047_2">
      <rect
         width="9104.41"
         height="13321.8"
         fill="white"
         transform="translate(-5099 -6754)"
         id="rect29" />
    </clipPath>
  </defs>
</svg>
