<?xml version="1.0" encoding="UTF-8" standalone="no"?>
<svg
   width="375"
   height="922"
   viewBox="0 0 375 922"
   fill="none"
   version="1.1"
   id="svg90"
   sodipodi:docname="decor-right-02.svg"
   inkscape:version="1.1.1 (3bf5ae0d25, 2021-09-20)"
   xmlns:inkscape="http://www.inkscape.org/namespaces/inkscape"
   xmlns:sodipodi="http://sodipodi.sourceforge.net/DTD/sodipodi-0.dtd"
   xmlns="http://www.w3.org/2000/svg"
   xmlns:svg="http://www.w3.org/2000/svg">
  <sodipodi:namedview
     id="namedview92"
     pagecolor="#ffffff"
     bordercolor="#666666"
     borderopacity="1.0"
     inkscape:pageshadow="2"
     inkscape:pageopacity="0.0"
     inkscape:pagecheckerboard="0"
     showgrid="false"
     inkscape:zoom="0.45444685"
     inkscape:cx="-93.520286"
     inkscape:cy="177.13842"
     inkscape:window-width="1920"
     inkscape:window-height="1001"
     inkscape:window-x="-9"
     inkscape:window-y="-9"
     inkscape:window-maximized="1"
     inkscape:current-layer="g83" />
  <g
     clip-path="url(#clip0_2047_2)"
     id="g83">
    <rect
       width="9104.41"
       height="13321.8"
       transform="translate(-5254 -4864)"
       fill="transparent"
       id="rect2" />
    <path
       opacity="0.2"
       d="M173.33 734.2C199.54 732.26 200.05 710.69 209.04 695.88C217.75 718.17 212.75 726.03 175.93 751.02C195.85 757.22 198.51 754.63 232.23 694.23C236.53 717.05 230.77 733.71 217.5 745.71C205.43 756.63 189.84 763.65 175.21 772.75C207.3 778.56 223.68 761.73 248.99 698.09C258.87 711.94 254.67 737.78 233.86 757.29C217.87 772.29 196.98 782.07 179.82 793.17C194.42 798.95 222.54 789.84 239.56 765.7C253.51 745.92 261.76 722.12 271.63 701.97C280.61 718.37 268.4 754.3 242.47 779.14C207.79 812.36 153.22 817.87 112.49 792.28C78.0601 770.65 57.6198 729.1 68.6098 697.02C77.2998 751.85 103.13 789.52 162.21 794.35C116.64 778.05 82.7997 752.86 87.0097 697.95C95.1097 715.47 101.29 734.28 111.85 750.17C123.03 766.99 141.06 775.06 163.91 773.13C127.23 760.68 104.26 739.2 103.67 701.34C105.38 700.19 107.1 699.04 108.81 697.89C114.7 710.92 118.38 725.76 127.14 736.44C134.96 745.98 148.38 750.92 161.67 754.51C143.62 738.77 120.17 728.39 126.09 693.76C139.23 709.41 138.36 733.53 163.37 733.98C155.88 722.31 149.28 712.01 142.67 701.72C144.49 700.38 146.32 699.03 148.14 697.69C151.94 701.7 155.74 705.7 160.05 710.25C161.21 708.51 163.09 706.95 163.19 705.29C163.61 698.1 162.91 690.82 163.73 683.69C165.6 667.43 161.73 658.79 143.09 653.93C103.64 643.65 79.1001 604.64 86.4901 567.47C95.2601 586.56 101.39 605.17 111.74 621.03C122.85 638.05 141 645.5 163.39 643.79C126.34 631.72 105.26 609.29 107.45 569.68C115.56 598.3 128.81 621.23 162.4 624.62C146.05 609.04 119.19 600.74 125.8 567.83C136.6 582.08 146.26 594.82 155.92 607.55C158.01 606.13 160.09 604.72 162.18 603.3C155.74 593.31 149.3 583.32 142.86 573.33C144.62 572.03 146.39 570.74 148.15 569.44C152.31 573.3 156.47 577.16 163.52 583.7C163.52 567.05 164.98 553.41 162.82 540.37C161.93 534.97 154.1 528.87 148.08 526.46C117.18 514.09 100.2 487.84 109.35 458.4C115.45 488.84 128.48 512.21 161.69 515.44C143.5 501.08 121.19 489.92 124.93 457.3C136.79 473.23 146.43 486.18 156.08 499.13C158.1 497.79 160.12 496.46 162.14 495.12C155.75 484.47 149.36 473.81 142.97 463.16C144.45 462.29 145.93 461.43 147.42 460.56C154.66 466.35 161.54 476.01 169.24 476.7C175.5 477.26 182.72 467.07 194.13 463.5C188.49 473.5 182.85 483.5 177.63 492.75C187.916 493.083 198.096 482.097 208.17 459.79C219.55 476.18 215.85 482.39 176.12 513.56C198.53 518.95 208.74 508.69 232.56 460.51C232.56 467.19 233.84 474.18 232.33 480.5C227.32 501.51 214.82 518.18 194.09 523.85C176.9 528.55 172.75 537.29 174.58 553.03C175.62 561.94 174.77 571.06 174.77 586.18C181.91 577.38 185.07 573.48 188.24 569.58C190.22 570.72 192.19 571.85 194.17 572.99C188.6 582.66 183.03 592.32 176.53 603.62C199.6 602.95 200.18 582.06 207.94 567.96C214.52 578.893 203.826 597.287 175.86 623.14C198.98 626.4 205.28 620.07 231.37 565.01C236.84 587.95 230.57 604.31 217.7 616.24C205.75 627.31 190.17 634.45 177.01 645.15C197.37 645.57 215.46 637.93 226.55 620.94C236.7 605.4 242.44 586.98 253.26 569.23C253.26 576.83 254.78 584.81 253 591.97C245.32 622.91 226.6 645.72 195.64 653.71C177.5 658.39 172.63 666.71 174.64 683.41C175.65 691.8 174.82 700.41 174.82 714.14C181.22 706.41 184.4 702.57 187.58 698.72C191.78 705.947 187.037 717.774 173.35 734.2H173.33Z"
       fill="#B3A998"
       id="path52" />
    <path
       opacity="0.2"
       d="M286.42 324.3C311.32 374.09 348.61 409.8 402.8 429.09C349.06 449.16 311.19 484.1 286.7 534.36C285.05 533.23 283.4 532.09 281.75 530.96V327.09C283.31 326.16 284.87 325.23 286.42 324.3ZM291.28 495.58C318.96 472.56 346.27 449.83 370.71 429.51C346.24 408.95 318.68 385.8 291.28 362.79V495.59V495.58Z"
       fill="#B3A998"
       id="path54" />
    <path
       opacity="0.2"
       d="M195.57 304.46C204.7 314.06 212.94 322.73 222.67 332.96C212.94 343.19 204.36 352.2 191.92 365.28C183.94 353.35 177.19 343.26 167 328.01C156.66 343.11 149.8 353.12 141.76 364.86C130.19 352.48 122.03 343.75 112.36 333.4C121.51 323.51 129.94 314.38 140.81 302.64C148.92 313.83 155.65 323.11 163.6 334.07C176.14 322.46 185.25 314.02 195.57 304.47V304.46Z"
       fill="#B3A998"
       id="path56" />
    <path
       opacity="0.2"
       d="m 192.08988,445.25179 c -9.18,-12.48 -15.94,-21.67 -26.37,-35.86 -9.57,13.53 -16.55,23.37 -24.91,35.19 -11.2,-11.86 -19.33,-20.46 -28.98,-30.67 9.2,-10.21 17.49,-19.43 29.32,-32.57 8.07,12.03 14.83,22.11 25.15,37.5 10.35,-15.6 17.05,-25.71 25.04,-37.75 12.42,12.43 20.82,20.83 30.92,30.94 -9.72,10.7 -18.07,19.9 -30.16,33.22 z"
       fill="#b3a998"
       id="path58" />
    <path
       opacity="0.2"
       d="M167.6 314.51C131.62 279.13 131.17 246.46 166.13 206.49C202.51 234.9 203.08 276.61 167.6 314.51ZM167.66 296.08C192.52 259.19 192.29 252.98 166.09 225.64C142.81 259.67 142.83 262.07 167.66 296.08Z"
       fill="#B3A998"
       id="path60" />
    <path
       opacity="0.2"
       d="M260.73 217.73C251.98 227.06 245.3 234.18 236.98 243.04C228.85 234.46 221.77 226.99 212.97 217.7C220.8 209.35 227.79 201.89 235.71 193.42C244.26 201.72 251.6 208.86 260.73 217.72V217.73Z"
       fill="#B3A998"
       id="path62" />
    <path
       opacity="0.2"
       d="M235.17 252.6C264.62 275.25 264.59 278.16 235.66 299.18C228.31 292.37 220.77 285.39 211.98 277.25C220.91 267.76 227.59 260.66 235.17 252.6Z"
       fill="#B3A998"
       id="path64" />
    <path
       opacity="0.2"
       d="M399.01 543.38C387.73 553.66 380.01 560.69 368.39 571.28C361.59 554.01 355.98 539.76 350.36 525.5C351.96 523.9 353.57 522.3 355.17 520.7C368.45 527.57 381.73 534.44 399 543.38H399.01Z"
       fill="#B3A998"
       id="path66" />
    <path
       opacity="0.2"
       d="M284.69 648.66C299.06 645.54 313.44 642.41 332.27 638.32C330.67 652.71 329.4 664.05 327.7 679.33C310.73 670.02 297.29 662.64 283.85 655.26C284.13 653.06 284.41 650.86 284.69 648.67V648.66Z"
       fill="#B3A998"
       id="path68" />
    <path
       opacity="0.2"
       d="M357.3 585.64C349.9 599.46 344.96 608.68 338.25 621.19C326.06 607.81 315.79 596.54 305.53 585.27C306.22 583.13 306.91 580.99 307.6 578.84C322.59 580.89 337.57 582.93 357.3 585.63V585.64Z"
       fill="#B3A998"
       id="path70" />
    <path
       opacity="0.2"
       d="M320.47 404.2C328.12 411.76 335.07 418.64 343.79 427.26C334.81 436.8 327.39 444.68 320.23 452.3C288.8 432.2 288.68 427 320.47 404.21V404.2Z"
       fill="#B3A998"
       id="path72" />
    <mask
       id="mask0_2047_2"
       style="mask-type:luminance"
       maskUnits="userSpaceOnUse"
       x="-243"
       y="-1040"
       width="611"
       height="3924">
      <path
         d="M367.81 -1040H-242.99V2883.45H367.81V-1040Z"
         fill="transparent"
         id="path74" />
    </mask>
    <g
       mask="url(#mask0_2047_2)"
       id="g81">
      <path
         opacity="0.2"
         d="M481.17 388.81C398.13 397.1 318.06 325.17 313.25 241.99C312.3 225.5 313.87 208.84 312.37 192.43C310.63 173.41 320.21 171.17 335.64 172.52C403.62 178.5 465.53 234.63 476.8 304.29C481.22 331.6 479.85 359.84 481.16 388.81H481.17ZM448.18 349.53C451.04 346.41 456.29 343.35 456.37 340.16C456.91 318.73 456.86 297.25 455.82 275.85C455.53 269.87 451.29 264.09 448.86 258.22C446.56 258.75 444.25 259.29 441.95 259.82C444.28 289.98 446.62 320.13 448.92 350.28C426.85 347.17 404.78 344.05 382.71 340.94C398.48 366.43 420.74 362.76 441.92 361.77C444.19 361.66 446.1 353.8 448.18 349.54V349.53ZM359.82 324.03C380.5 345.02 405.53 333.89 429.36 332.89C409.07 311.56 383.64 323.49 359.82 324.03ZM412.6 312.7C394.6 284.16 367.35 300.94 343.7 298.98C361.07 328.62 389.42 308.32 412.6 312.7ZM429.74 236.88C430.63 266.37 419.74 296.99 436.33 324.8C435.2 295.3 445.52 264.97 429.74 236.88ZM418.13 218.84C415.14 219.14 412.15 219.43 409.17 219.73C413.75 246.94 402.54 275.56 418.13 305.9V218.84ZM402.25 279.96C408.77 243.17 405.94 215.44 394.92 208.03C387.29 238.59 390.22 267.42 402.25 279.96ZM380.63 267.45C368.5 244.3 350.53 252.43 335.75 251.56C332.93 251.4 329.84 255.83 326.87 258.14C329.9 261.24 332.75 266.78 336 267.02C349.4 268.03 362.91 267.44 380.63 267.44V267.45ZM396.95 290.43C383.59 272.04 352.77 268.88 330.76 281C351.12 297.27 373.02 286.57 396.95 290.43ZM384.39 197.18C371.23 226.03 373.64 246.03 384.39 253.74V197.18ZM361.5 246.1C355.63 224.64 340.89 229.37 328.39 230.12C326.62 230.23 323.29 235.8 323.93 237.78C324.99 241.02 328.51 245.43 331.37 245.73C340.79 246.73 350.38 246.11 361.5 246.11V246.1ZM466.84 305.57C466.01 305.75 465.18 305.93 464.35 306.11V365.8C465.18 365.67 466.01 365.55 466.84 365.42V305.57ZM361.2 234.88C364.49 234.54 367.78 234.21 371.07 233.87C369.85 219.16 368.63 204.44 367.41 189.73C363.92 190.14 360.44 190.54 356.95 190.95C358.37 205.59 359.78 220.24 361.2 234.88Z"
         fill="#B3A998"
         id="path77" />
      <path
         opacity="0.2"
         d="M348.43 678.01C349.28 598.41 414.51 534.08 494.06 534.42C574.95 534.76 639.69 600.1 639.11 680.8C638.53 761.55 572.93 826.31 492.35 825.7C412.14 825.09 347.57 758.82 348.43 678.01ZM358.54 681.36C359.34 754.79 421.25 815.75 494.65 815.41C569 815.06 630.22 752.13 628.82 677.47C627.44 603.31 565.77 543.58 491.85 544.8C418 546.02 357.73 607.75 358.53 681.36H358.54Z"
         fill="#B3A998"
         id="path79" />
    </g>
  </g>
  <defs
     id="defs88">
    <clipPath
       id="clip0_2047_2">
      <rect
         width="9104.41"
         height="13321.8"
         fill="white"
         transform="translate(-5254 -4864)"
         id="rect85" />
    </clipPath>
  </defs>
</svg>
