<svg width="209" height="112" viewBox="0 0 209 112" fill="none" xmlns="http://www.w3.org/2000/svg">
<path d="M80.7903 45.41H91.1802V95.89H80.7903V45.41Z" fill="#4E4737"/>
<path d="M106.85 82.27C106.85 86.91 110.72 88.49 113.37 88.49C116.71 88.49 118.18 87.84 120.71 85.14L128.22 88.9C124.82 94.59 119.3 96.77 112.61 96.77C103.51 96.77 96.0603 89.61 96.0603 80.86C96.0603 72.11 103.51 64.89 112.61 64.89C121.71 64.89 128.75 70.29 128.75 80.86C128.75 81.27 128.75 81.92 128.69 82.27H106.85ZM118.59 76.52C118.12 73.35 115.95 71.65 112.9 71.65C109.32 71.65 107.32 73.76 107.15 76.52H118.6H118.59Z" fill="#4E4737"/>
<path d="M146.12 64.9C150.17 64.9 153.52 66.25 155.98 68.66V65.78H166.37V95.89H156.1V92.49H155.98C153.75 94.96 150.23 96.77 146.12 96.77C137.32 96.77 131.15 89.67 131.15 80.86C131.15 72.05 137.31 64.89 146.12 64.89V64.9ZM149.23 87.91C153.28 87.91 156.22 84.98 156.22 80.87C156.22 76.76 153.11 73.77 149.23 73.77C145.35 73.77 142.19 76.7 142.19 80.87C142.19 85.04 145.01 87.91 149.23 87.91Z" fill="#4E4737"/>
<path d="M193.67 96.77C189.62 96.77 186.27 95.42 183.81 93.01V111.15H173.42V65.78H183.69V69.18H183.81C186.04 66.72 189.56 64.9 193.67 64.9C202.47 64.9 208.64 72 208.64 80.81C208.64 89.62 202.48 96.78 193.67 96.78V96.77ZM190.56 73.76C186.51 73.76 183.57 76.69 183.57 80.8C183.57 84.91 186.68 87.9 190.56 87.9C194.44 87.9 197.6 84.97 197.6 80.8C197.6 76.63 194.78 73.76 190.56 73.76Z" fill="#4E4737"/>
<path d="M41.0603 26.32H40.7703L30.8503 54.73H24.2803L14.3604 26.32H14.0703L11.7803 55.02H0.740234L5.08032 6.58997H16.8203L27.5603 34.53L38.3003 6.58997H50.0403L54.3801 55.02H43.3503L41.0603 26.32Z" fill="#4E4737"/>
<path d="M58.8403 24.91H69.2302V28.08H69.3503C71.7003 25.73 74.6902 24.03 77.9802 24.03C83.5002 24.03 91.1902 26.79 91.1902 35.18V55.02H80.8003V38C80.8003 35.01 78.7401 32.13 75.4001 32.13C72.2901 32.13 69.2402 35.01 69.2402 38V55.02H58.8503V24.91H58.8403Z" fill="#4E4737"/>
<path d="M117.72 39.29L133.45 55.02H120.07L108.04 42.99V55.02H97.6501V4.54004H108.04V35.41L118.55 24.9H132.05L117.73 39.28L117.72 39.29Z" fill="#4E4737"/>
<path d="M147.95 49.25C148.84 50.31 149.8 51.05 150.73 51.82C151.8 52.7 151.81 53.49 150.84 54.48C150.25 55.08 149.55 55.46 148.78 55.73C147.87 56.05 147.27 56.69 146.83 57.5C146.52 58.06 146.03 58.41 145.54 58.76C145.43 58.84 145.3 58.91 145.17 58.81C145.05 58.71 145.04 58.57 145.12 58.44C145.44 57.92 145.34 57.35 145.35 56.79C145.37 55.54 145.76 54.58 147.1 54.25C147.53 54.14 147.45 53.92 147.18 53.69C146.53 53.13 145.91 52.54 145.23 52.01C144.64 51.55 143.9 51.72 143.27 51.79C142 51.93 140.63 51.89 139.67 53.04C139.42 52.7 139.8 52.51 139.72 52.14C138.85 52.8 139.13 53.78 138.88 54.56C138.2 54.26 137.6 53.07 137.8 52.17C138.23 50.21 139.82 50.06 141.5 50.04C141.04 49.1 140.62 48.24 140.19 47.37C139.24 45.45 138.64 43.43 138.53 41.28C138.49 40.44 138.67 39.61 138.99 38.84C139.65 37.24 141.2 36.61 143.18 37.15C144.31 37.46 145.41 37.85 146.46 38.41C146.87 38.63 147.31 38.81 147.73 39C147.85 38.82 147.72 38.76 147.66 38.69C145.35 36.42 144.14 33.58 143.47 30.5C142.79 27.4 142.68 28.16 140.32 28.01C138.71 27.91 137.49 26.78 137.45 25.15C137.42 24.05 137.66 23 137.92 21.95C138.09 21.27 138.48 20.73 139.07 20.33C139.76 19.86 140.2 19.89 140.71 20.53C141.29 21.25 141.8 22.04 142 22.96C142.34 24.5 143.19 25.67 144.51 26.51C145.46 27.11 146.09 28.05 146.9 28.79C147.01 28.89 147.12 29 147.31 29.18C147.34 28.81 147.15 28.61 147.01 28.42C146.28 27.41 145.46 26.48 144.44 25.75C143.46 25.04 142.75 24.13 142.42 22.95C142.09 21.78 141.45 20.79 140.67 19.86C139.1 18 138.09 15.79 137.11 13.59C135.88 10.83 134.46 8.16002 133.18 5.42002C132.83 4.68002 132.08 4.46002 131.51 4.00002C130.36 3.06002 129.08 3.25002 127.79 3.45002C127.47 3.50002 127.24 3.63002 127.19 3.98002C127.16 4.15002 127.21 4.39002 126.94 4.37002C126.7 4.35002 126.48 4.17002 126.44 3.96002C126.35 3.48002 126.25 2.98002 126.64 2.55002C127.26 1.88002 127.92 1.23002 128.73 0.850017C129.68 0.400017 130.73 0.580017 131.7 0.890017C132.84 1.26002 133.68 2.08002 134.33 3.04002C135.25 4.41002 136.33 5.65002 137.34 6.95002C138.1 7.93002 138.81 8.95002 139.44 10.01C140.69 12.12 141.93 14.25 143.24 16.32C144.22 17.86 145.31 19.33 146.81 20.44C147.79 21.16 148.88 21.59 150.13 21.64C153.08 21.75 156 21.62 158.75 20.38C160.19 19.73 161.39 18.74 162.35 17.49C162.86 16.83 162.92 16.02 162.9 15.23C162.89 14.74 162.78 14.24 162.67 13.76C162.62 13.54 162.73 12.96 162.16 13.41C161.99 13.54 161.92 13.36 161.95 13.22C162.05 12.81 162.23 12.45 162.65 12.28C163.07 12.11 163.25 12.4 163.47 12.67C165.21 14.84 164.77 17.13 163.73 19.35C163.08 20.75 162.13 22 161.14 23.21C160.03 24.56 158.67 25.57 157.18 26.44C156.12 27.06 155.59 27.99 155.43 29.18C155.4 29.37 155.35 29.56 155.28 29.87C154.13 28.37 152.94 26.27 151.9 24.81C151.99 25.08 152.28 25.69 152.36 25.81C153.24 27.25 154.11 28.7 155.01 30.14C155.31 30.63 155.45 31.18 155.6 31.72C156.18 33.74 157.04 35.65 157.95 37.54C159.9 41.61 161.17 45.89 161.98 50.32C162.57 53.54 162.93 56.79 162.83 60.07C162.62 67.28 160.03 73.39 154.27 77.92C152.15 79.59 149.61 80.5 146.98 81.01C144.45 81.5 141.88 81.6 139.32 81.06C138.65 80.92 138.04 80.62 137.51 80.19C136.9 79.7 136.68 79.05 136.91 78.53C137.17 77.95 137.88 77.57 138.62 77.74C139.74 77.99 140.86 78.27 142.01 78.34C147.96 78.75 152.74 76.61 156.26 71.73C158.45 68.7 159.18 65.22 159.53 61.63C159.96 57.23 159.39 52.9 158.46 48.61C158.39 48.28 158.28 47.96 158.13 47.65C157.9 47.16 157.57 47.11 157.2 47.53C156.53 48.29 155.91 49.09 155.1 49.72C154.06 50.52 152.91 50.71 151.65 50.49C150.41 50.27 149.26 49.76 147.96 49.22L147.95 49.25ZM150.94 40.2C151.43 40.74 151.79 41.13 152.14 41.54C152.79 42.29 152.55 43.1 151.62 43.44C150.9 43.71 150.17 43.74 149.43 43.62C148.52 43.47 147.61 43.29 146.72 43.09C145.44 42.8 144.17 42.54 142.85 42.6C141.47 42.66 141.01 43.12 140.99 44.51C140.96 46.25 141.59 47.77 142.54 49.18C142.61 49.29 142.7 49.38 142.78 49.48C142.01 48.1 141.38 46.71 141.19 45.17C141.02 43.8 141.51 43.19 142.86 43C143.43 42.92 143.99 42.96 144.54 43.08C145.82 43.36 147.08 43.68 148.36 43.91C149.86 44.18 151.37 44.31 152.71 43.31C153.46 42.75 153.52 42.13 152.8 41.53C152.27 41.08 151.67 40.72 150.95 40.21L150.94 40.2Z" fill="#B3A998"/>
</svg>
